<svg xmlns="http://www.w3.org/2000/svg" width="257.738" height="227.978" viewBox="0 0 257.738 227.978">
  <g id="Componente_1_5" data-name="Componente 1 – 5" transform="translate(0)">
    <path id="Trazado_4" data-name="Trazado 4" d="M331.966,122.806c32.781.744,63.99,15.064,90.765,33.993,13.75,9.72,26.828,20.969,35.57,35.361,12.435,20.474,14.991,45.349,15.558,69.3.429,18.154-.789,38.107-13.139,51.421-6.224,6.711-14.634,10.934-23.036,14.568-26.324,11.383-54.464,18.358-82.956,21.63-21.05,2.417-42.626,2.8-63.167-2.4s-40.083-16.418-52.322-33.713c-8.254-11.664-12.863-25.5-16.43-39.333-4.673-18.13-7.763-36.9-6.217-55.554.518-6.247,4.476-29.6,20.614-51.172C269.2,124.127,324.556,122.859,331.966,122.806Z" transform="translate(-216.189 -122.806)" fill="#656d26"/>
  </g>
</svg>
